<mxfile host="app.diagrams.net" agent="Mozilla/5.0 (Windows NT 10.0; Win64; x64) AppleWebKit/537.36 (KHTML, like Gecko) Chrome/131.0.0.0 Safari/537.36" version="24.8.6">
  <diagram name="Trang-1" id="fB4Nw6IuzOfQ3e-Dj_P0">
    <mxGraphModel dx="1050" dy="557" grid="1" gridSize="10" guides="1" tooltips="1" connect="1" arrows="1" fold="1" page="1" pageScale="1" pageWidth="827" pageHeight="1169" math="0" shadow="0">
      <root>
        <mxCell id="0" />
        <mxCell id="1" parent="0" />
        <mxCell id="spCWutmkWbccNQq1CNPv-3" value="" style="edgeStyle=orthogonalEdgeStyle;rounded=0;orthogonalLoop=1;jettySize=auto;html=1;" edge="1" parent="1" source="spCWutmkWbccNQq1CNPv-1" target="spCWutmkWbccNQq1CNPv-2">
          <mxGeometry relative="1" as="geometry" />
        </mxCell>
        <mxCell id="spCWutmkWbccNQq1CNPv-1" value="start" style="ellipse;whiteSpace=wrap;html=1;" vertex="1" parent="1">
          <mxGeometry x="360" y="20" width="120" height="80" as="geometry" />
        </mxCell>
        <mxCell id="spCWutmkWbccNQq1CNPv-5" value="" style="edgeStyle=orthogonalEdgeStyle;rounded=0;orthogonalLoop=1;jettySize=auto;html=1;" edge="1" parent="1" source="spCWutmkWbccNQq1CNPv-2" target="spCWutmkWbccNQq1CNPv-4">
          <mxGeometry relative="1" as="geometry" />
        </mxCell>
        <mxCell id="spCWutmkWbccNQq1CNPv-2" value="nhập vào A và B&amp;nbsp;" style="shape=parallelogram;perimeter=parallelogramPerimeter;whiteSpace=wrap;html=1;fixedSize=1;" vertex="1" parent="1">
          <mxGeometry x="360" y="160" width="120" height="60" as="geometry" />
        </mxCell>
        <mxCell id="spCWutmkWbccNQq1CNPv-7" value="" style="edgeStyle=orthogonalEdgeStyle;rounded=0;orthogonalLoop=1;jettySize=auto;html=1;" edge="1" parent="1" source="spCWutmkWbccNQq1CNPv-4">
          <mxGeometry relative="1" as="geometry">
            <mxPoint x="260" y="320" as="targetPoint" />
            <Array as="points">
              <mxPoint x="270" y="320" />
              <mxPoint x="270" y="320" />
            </Array>
          </mxGeometry>
        </mxCell>
        <mxCell id="spCWutmkWbccNQq1CNPv-9" style="edgeStyle=orthogonalEdgeStyle;rounded=0;orthogonalLoop=1;jettySize=auto;html=1;" edge="1" parent="1" source="spCWutmkWbccNQq1CNPv-4">
          <mxGeometry relative="1" as="geometry">
            <mxPoint x="520" y="320" as="targetPoint" />
          </mxGeometry>
        </mxCell>
        <mxCell id="spCWutmkWbccNQq1CNPv-4" value="A&amp;gt;B" style="rhombus;whiteSpace=wrap;html=1;" vertex="1" parent="1">
          <mxGeometry x="380" y="280" width="80" height="80" as="geometry" />
        </mxCell>
        <mxCell id="spCWutmkWbccNQq1CNPv-12" style="edgeStyle=orthogonalEdgeStyle;rounded=0;orthogonalLoop=1;jettySize=auto;html=1;exitX=0.42;exitY=1.063;exitDx=0;exitDy=0;exitPerimeter=0;" edge="1" parent="1" source="spCWutmkWbccNQq1CNPv-15">
          <mxGeometry relative="1" as="geometry">
            <mxPoint x="420" y="470" as="targetPoint" />
            <mxPoint x="200" y="360" as="sourcePoint" />
            <Array as="points">
              <mxPoint x="200" y="410" />
              <mxPoint x="420" y="410" />
            </Array>
          </mxGeometry>
        </mxCell>
        <mxCell id="spCWutmkWbccNQq1CNPv-8" value="đúng" style="text;html=1;align=center;verticalAlign=middle;whiteSpace=wrap;rounded=0;" vertex="1" parent="1">
          <mxGeometry x="330" y="290" width="60" height="30" as="geometry" />
        </mxCell>
        <mxCell id="spCWutmkWbccNQq1CNPv-13" style="edgeStyle=orthogonalEdgeStyle;rounded=0;orthogonalLoop=1;jettySize=auto;html=1;" edge="1" parent="1">
          <mxGeometry relative="1" as="geometry">
            <mxPoint x="420" y="470" as="targetPoint" />
            <mxPoint x="580" y="350" as="sourcePoint" />
            <Array as="points">
              <mxPoint x="580" y="410" />
              <mxPoint x="421" y="410" />
            </Array>
          </mxGeometry>
        </mxCell>
        <mxCell id="spCWutmkWbccNQq1CNPv-11" value="sai" style="text;html=1;align=center;verticalAlign=middle;whiteSpace=wrap;rounded=0;" vertex="1" parent="1">
          <mxGeometry x="450" y="290" width="60" height="30" as="geometry" />
        </mxCell>
        <mxCell id="spCWutmkWbccNQq1CNPv-14" value="End" style="ellipse;whiteSpace=wrap;html=1;" vertex="1" parent="1">
          <mxGeometry x="360" y="480" width="120" height="80" as="geometry" />
        </mxCell>
        <mxCell id="spCWutmkWbccNQq1CNPv-15" value="A" style="shape=parallelogram;perimeter=parallelogramPerimeter;whiteSpace=wrap;html=1;fixedSize=1;" vertex="1" parent="1">
          <mxGeometry x="150" y="290" width="120" height="60" as="geometry" />
        </mxCell>
        <mxCell id="spCWutmkWbccNQq1CNPv-17" value="B" style="shape=parallelogram;perimeter=parallelogramPerimeter;whiteSpace=wrap;html=1;fixedSize=1;" vertex="1" parent="1">
          <mxGeometry x="510" y="290" width="120" height="60" as="geometry" />
        </mxCell>
      </root>
    </mxGraphModel>
  </diagram>
</mxfile>
